<svg xmlns="http://www.w3.org/2000/svg" xmlns:xlink="http://www.w3.org/1999/xlink" version="1.2" width="297.00mm" height="210.00mm" viewBox="0.0000 -0.0000 169.0094 119.5016">
<style type="text/css">
<![CDATA[
tspan { white-space: pre; }
]]>
</style>
<g transform="translate(68.9353, 32.1746)">
<text font-family="serif" font-size="3.9200" text-anchor="start" fill="currentColor">
<tspan>Easy Notes Ukulele</tspan>
</text>
</g>
<g transform="translate(5.6906, 41.6991)">
<rect x="79.2597" y="-0.1000" width="1.6500" height="0.2000" ry="0.1000" fill="currentColor"/>
</g>
<g transform="translate(73.9772, 40.6991)">
<line stroke-linejoin="round" stroke-linecap="round" stroke-width="0.1000" stroke="currentColor" x1="0.0500" y1="0" x2="20.4473" y2="0"/>
</g>
<g transform="translate(73.9772, 39.6991)">
<line stroke-linejoin="round" stroke-linecap="round" stroke-width="0.1000" stroke="currentColor" x1="0.0500" y1="0" x2="20.4473" y2="0"/>
</g>
<g transform="translate(73.9772, 38.6991)">
<line stroke-linejoin="round" stroke-linecap="round" stroke-width="0.1000" stroke="currentColor" x1="0.0500" y1="0" x2="20.4473" y2="0"/>
</g>
<g transform="translate(73.9772, 37.6991)">
<line stroke-linejoin="round" stroke-linecap="round" stroke-width="0.1000" stroke="currentColor" x1="0.0500" y1="0" x2="20.4473" y2="0"/>
</g>
<g transform="translate(73.9772, 36.6991)">
<line stroke-linejoin="round" stroke-linecap="round" stroke-width="0.1000" stroke="currentColor" x1="0.0500" y1="0" x2="20.4473" y2="0"/>
</g>
<g transform="translate(94.2845, 38.6991)">
<rect x="0.0000" y="-2.0000" width="0.1900" height="4.0000" ry="0.0000" fill="currentColor"/>
</g>
<a style="color:inherit;" xlink:href="textedit:///Users/heiner/tmp/lilypond/easynotes-ukulele.ly:26:19:20">
<g transform="translate(83.2272, 39.6991)">
<circle stroke-linejoin="round" stroke-linecap="round" fill="currentColor" stroke="currentColor" stroke-width="0" r="0.5500"/>
</g>
<g color="rgb(100.0000%, 100.0000%, 100.0000%)">
<g transform="translate(82.8687, 40.0160)">
<text font-family="sans-serif" font-weight="bold" font-size="0.8730" text-anchor="start" fill="currentColor">
<tspan>G</tspan>
</text>
</g>
</g>
</a>
<a style="color:inherit;" xlink:href="textedit:///Users/heiner/tmp/lilypond/easynotes-ukulele.ly:26:23:24">
<g transform="translate(84.6772, 44.1658)">
<text font-family="serif" font-size="2.2001" text-anchor="start" fill="currentColor">
<tspan>Tuning</tspan>
</text>
</g>
</a>
<g transform="translate(74.7772, 39.6991)">
<path transform="scale(0.0040, -0.0040)" d="M266 -635h-6c-108 0 -195 88 -195 197c0 58 53 103 112 103c54 0 95 -47 95 -103c0 -52 -43 -95 -95 -95c-11 0 -21 2 -31 6c26 -39 68 -65 117 -65h4zM461 -203c68 24 113 90 113 164c0 90 -66 179 -173 190c19 -89 48 -242 60 -354zM74 28c0 -145 141 -247 264 -247
c1 0 47 0 82 6c-7 64 -29 203 -63 364c-79 -8 -124 -61 -124 -119c0 -44 25 -91 81 -123c5 -5 7 -10 7 -15c0 -11 -10 -22 -22 -22c-15 0 -126 62 -126 187c0 88 58 174 160 197c-14 58 -29 117 -46 175c-107 -121 -213 -243 -213 -403zM250 553c-29 96 -52 170 -52 346
c0 115 55 224 149 292c6 5 14 5 20 0c68 -80 133 -245 133 -358c0 -143 -86 -255 -180 -364c21 -68 39 -138 56 -207c2 0 7 1 13 1c155 0 256 -128 256 -261c0 -113 -74 -212 -180 -246c3 -35 5 -70 5 -105c0 -19 -1 -39 -2 -58c-7 -119 -88 -225 -202 -228l1 43
c93 2 153 92 159 191c1 18 2 37 2 55c0 31 -1 61 -4 92c-5 -1 -44 -8 -89 -8c-193 0 -333 180 -333 374c0 177 131 306 248 441zM428 916c0 34 1 66 -20 129c-99 -48 -162 -149 -162 -259c0 -52 12 -115 36 -194c80 97 146 198 146 324z" fill="currentColor"/>
</g>
<g transform="translate(78.9772, 38.6991)">
<path transform="scale(0.0040, -0.0040)" d="M250 262c116 0 176 -106 176 -163c0 -40 -30 -72 -67 -72c-31 0 -75 25 -75 75c0 38 27 77 72 77c4 0 9 0 14 -1c-28 37 -72 59 -120 59c-106 0 -113 -73 -113 -186v-51v-51c0 -113 7 -187 113 -187c80 0 139 70 158 151c2 7 7 10 12 10c6 0 13 -4 13 -12
c0 -22 -50 -174 -183 -174c-59 0 -250 19 -250 263c0 62 18 262 250 262z" fill="currentColor"/>
</g>
<g transform="translate(83.7122, 38.6991)">
<rect x="-0.0650" y="-2.5000" width="0.1300" height="3.3122" ry="0.0400" fill="currentColor"/>
</g>
<a style="color:inherit;" xlink:href="textedit:///Users/heiner/tmp/lilypond/easynotes-ukulele.ly:26:21:22">
<g transform="translate(82.7662, 35.4368)">
<path transform="scale(0.0022, -0.0022)" d="M140 501c6 0 42 -15 80 -15c39 0 74 15 83 15c10 0 17 -7 17 -14c0 -2 0 -5 -2 -7l-282 -319h152v3c0 40 39 31 75 79c23 31 23 59 39 59c8 0 16 -6 16 -17v-124h79c12 0 18 -9 18 -18s-6 -18 -18 -18h-79c2 -51 33 -96 80 -96c10 0 15 -8 15 -15s-5 -14 -15 -14
c-49 0 -96 14 -145 14s-97 -14 -146 -14c-10 0 -14 7 -14 14s4 15 14 15c47 0 79 45 81 96h-152c-29 0 -38 17 -38 28c0 13 125 127 125 327c0 11 8 21 17 21z" fill="currentColor"/>
</g>
<g transform="translate(83.2272, 34.8744)">
<circle stroke-linejoin="round" stroke-linecap="round" fill="none" stroke="currentColor" stroke-width="0.1000" r="0.7746"/>
</g>
</a>
<a style="color:inherit;" xlink:href="textedit:///Users/heiner/tmp/lilypond/easynotes-ukulele.ly:26:54:55">
<g transform="translate(85.7752, 41.6991)">
<circle stroke-linejoin="round" stroke-linecap="round" fill="currentColor" stroke="currentColor" stroke-width="0" r="0.5500"/>
</g>
<g color="rgb(100.0000%, 100.0000%, 100.0000%)">
<g transform="translate(85.4508, 42.0164)">
<text font-family="sans-serif" font-weight="bold" font-size="0.8730" text-anchor="start" fill="currentColor">
<tspan>C</tspan>
</text>
</g>
</g>
</a>
<g transform="translate(86.2602, 38.6991)">
<rect x="-0.0650" y="-0.5000" width="0.1300" height="3.3122" ry="0.0400" fill="currentColor"/>
</g>
<a style="color:inherit;" xlink:href="textedit:///Users/heiner/tmp/lilypond/easynotes-ukulele.ly:26:56:57">
<g transform="translate(85.3826, 35.8868)">
<path transform="scale(0.0022, -0.0022)" d="M270 266c0 -39 76 -28 76 -125c0 -94 -83 -141 -186 -141c-82 0 -160 45 -160 119c0 32 26 58 58 58s58 -26 58 -58c0 -22 -36 -26 -36 -48c0 -33 42 -42 80 -42c46 0 56 58 56 112v38c0 40 -4 69 -43 69h-74c-12 0 -18 9 -18 18s6 18 18 18h74c40 0 43 31 43 73v30
c0 50 -16 84 -61 84c-34 0 -71 -8 -71 -38c0 -19 32 -23 32 -42c0 -28 -23 -51 -51 -51s-51 23 -51 51c0 67 68 109 141 109c93 0 174 -31 174 -113c0 -112 -59 -78 -59 -121z" fill="currentColor"/>
</g>
<g transform="translate(85.7752, 35.3255)">
<circle stroke-linejoin="round" stroke-linecap="round" fill="none" stroke="currentColor" stroke-width="0.1000" r="0.7735"/>
</g>
</a>
<a style="color:inherit;" xlink:href="textedit:///Users/heiner/tmp/lilypond/easynotes-ukulele.ly:26:59:60">
<g transform="translate(88.8232, 40.6991)">
<circle stroke-linejoin="round" stroke-linecap="round" fill="currentColor" stroke="currentColor" stroke-width="0" r="0.5500"/>
</g>
<g color="rgb(100.0000%, 100.0000%, 100.0000%)">
<g transform="translate(88.5330, 41.0164)">
<text font-family="sans-serif" font-weight="bold" font-size="0.8730" text-anchor="start" fill="currentColor">
<tspan>E</tspan>
</text>
</g>
</g>
</a>
<g transform="translate(89.3082, 38.6991)">
<rect x="-0.0650" y="-1.5000" width="0.1300" height="3.3122" ry="0.0400" fill="currentColor"/>
</g>
<a style="color:inherit;" xlink:href="textedit:///Users/heiner/tmp/lilypond/easynotes-ukulele.ly:26:60:61">
<g transform="translate(88.3965, 35.8868)">
<path transform="scale(0.0022, -0.0022)" d="M234 0c-91 0 -93 69 -145 69c-29 0 -57 -21 -60 -56c-1 -9 -7 -13 -14 -13s-15 5 -15 14c0 154 232 168 232 341c0 56 -13 116 -61 116c-33 0 -66 -14 -66 -44c0 -24 31 -37 31 -61c0 -34 -27 -61 -61 -61s-61 27 -61 61c0 79 74 134 157 134c98 0 190 -55 190 -145
c0 -143 -134 -156 -232 -206h7c86 0 113 -61 170 -61c51 0 39 42 59 42c7 0 15 -5 15 -14c0 -24 -46 -116 -146 -116z" fill="currentColor"/>
</g>
<g transform="translate(88.8232, 35.3255)">
<circle stroke-linejoin="round" stroke-linecap="round" fill="none" stroke="currentColor" stroke-width="0.1000" r="0.7735"/>
</g>
</a>
<a style="color:inherit;" xlink:href="textedit:///Users/heiner/tmp/lilypond/easynotes-ukulele.ly:26:63:64">
<g transform="translate(91.8713, 39.1991)">
<circle stroke-linejoin="round" stroke-linecap="round" fill="currentColor" stroke="currentColor" stroke-width="0" r="0.5500"/>
</g>
<g color="rgb(100.0000%, 100.0000%, 100.0000%)">
<g transform="translate(91.5299, 39.5164)">
<text font-family="sans-serif" font-weight="bold" font-size="0.8730" text-anchor="start" fill="currentColor">
<tspan>A</tspan>
</text>
</g>
</g>
</a>
<g transform="translate(92.3563, 38.6991)">
<rect x="-0.0650" y="-3.0000" width="0.1300" height="3.3122" ry="0.0400" fill="currentColor"/>
</g>
<a style="color:inherit;" xlink:href="textedit:///Users/heiner/tmp/lilypond/easynotes-ukulele.ly:26:64:65">
<g transform="translate(91.4786, 34.9368)">
<path transform="scale(0.0022, -0.0022)" d="M129 129h130c0 -52 32 -100 81 -100c10 0 14 -8 14 -15s-4 -14 -14 -14c-49 0 -97 14 -146 14s-96 -14 -145 -14c-10 0 -15 7 -15 14s5 15 15 15c49 0 80 48 80 100zM194 486c22 0 41 15 49 15s16 -9 16 -21v-351h-130v215c0 15 -11 23 -20 23c-5 0 -9 -2 -11 -7
l-66 -127c-4 -7 -9 -9 -15 -9c-9 0 -19 7 -19 17c0 3 0 6 2 9l129 250c7 14 36 -14 65 -14z" fill="currentColor"/>
</g>
<g transform="translate(91.8713, 34.3598)">
<circle stroke-linejoin="round" stroke-linecap="round" fill="none" stroke="currentColor" stroke-width="0.1000" r="0.7892"/>
</g>
</a>
<g transform="translate(5.6906, 45.1991)">
<rect x="129.8160" y="-0.2007" width="3.9771" height="0.4014" ry="0.2007" fill="currentColor"/>
</g>
<g transform="translate(5.6906, 60.1991)">
<rect x="39.0832" y="-0.2007" width="3.9771" height="0.4014" ry="0.2007" fill="currentColor"/>
</g>
<g transform="translate(28.4528, 57.6991)">
<line stroke-linejoin="round" stroke-linecap="round" stroke-width="0.1514" stroke="currentColor" x1="0.0757" y1="0" x2="112.4129" y2="0"/>
</g>
<g transform="translate(28.4528, 55.1991)">
<line stroke-linejoin="round" stroke-linecap="round" stroke-width="0.1514" stroke="currentColor" x1="0.0757" y1="0" x2="112.4129" y2="0"/>
</g>
<g transform="translate(28.4528, 52.6991)">
<line stroke-linejoin="round" stroke-linecap="round" stroke-width="0.1514" stroke="currentColor" x1="0.0757" y1="0" x2="112.4129" y2="0"/>
</g>
<g transform="translate(28.4528, 50.1991)">
<line stroke-linejoin="round" stroke-linecap="round" stroke-width="0.1514" stroke="currentColor" x1="0.0757" y1="0" x2="112.4129" y2="0"/>
</g>
<g transform="translate(28.4528, 47.6991)">
<line stroke-linejoin="round" stroke-linecap="round" stroke-width="0.1514" stroke="currentColor" x1="0.0757" y1="0" x2="112.4129" y2="0"/>
</g>
<g transform="translate(28.4528, 75.2499)">
<line stroke-linejoin="round" stroke-linecap="round" stroke-width="0.1514" stroke="currentColor" x1="0.0757" y1="0" x2="112.4129" y2="0"/>
</g>
<g transform="translate(28.4528, 71.4999)">
<line stroke-linejoin="round" stroke-linecap="round" stroke-width="0.1514" stroke="currentColor" x1="0.0757" y1="0" x2="112.4129" y2="0"/>
</g>
<g transform="translate(28.4528, 67.7499)">
<line stroke-linejoin="round" stroke-linecap="round" stroke-width="0.1514" stroke="currentColor" x1="0.0757" y1="0" x2="112.4129" y2="0"/>
</g>
<g transform="translate(28.4528, 63.9999)">
<line stroke-linejoin="round" stroke-linecap="round" stroke-width="0.1514" stroke="currentColor" x1="0.0757" y1="0" x2="112.4129" y2="0"/>
</g>
<g transform="translate(28.3105, 61.4745)">
<rect x="0.0000" y="-13.8511" width="0.2423" height="27.7023" ry="0.0757" fill="currentColor"/>
</g>
<a style="color:inherit;" xlink:href="textedit:///Users/heiner/tmp/lilypond/easynotes-ukulele.ly:42:21:22">
<g transform="translate(46.7624, 60.1991)">
<circle stroke-linejoin="round" stroke-linecap="round" fill="currentColor" stroke="currentColor" stroke-width="0" r="1.3257"/>
</g>
<g color="rgb(100.0000%, 100.0000%, 100.0000%)">
<g transform="translate(45.9771, 60.9926)">
<text font-family="sans-serif" font-weight="bold" font-size="2.1829" text-anchor="start" fill="currentColor">
<tspan>C</tspan>
</text>
</g>
</g>
</a>
<g transform="translate(29.2528, 55.1991)">
<path transform="scale(0.0100, -0.0100)" d="M264 -594c47 0 165 26 165 246c0 32 -2 64 -5 96c-5 -1 -44 -8 -89 -8c-193 0 -333 178 -333 372c0 178 133 306 251 440c-27 93 -49 170 -49 345c0 116 55 226 150 295c5 4 11 4 16 0c67 -81 132 -246 132 -359c0 -144 -87 -256 -183 -365c20 -69 39 -138 55 -208
c2 0 7 1 15 1c154 0 254 -127 254 -259c0 -112 -73 -212 -180 -245c3 -36 5 -72 5 -108c0 -19 0 -37 -1 -56c-7 -120 -89 -226 -206 -226c-108 0 -195 87 -195 195c0 58 53 104 112 104c54 0 95 -48 95 -104c0 -52 -43 -95 -95 -95c-12 0 -24 4 -35 9c26 -41 70 -70 121 -70
zM459 -205c71 24 117 92 117 166c0 92 -69 184 -179 193c1 -5 45 -212 62 -359zM71 31c0 -146 142 -251 267 -251c1 0 46 0 82 6c-7 63 -28 201 -64 367c-79 -9 -125 -62 -125 -121c0 -44 26 -92 82 -124c4 -4 7 -9 7 -14c0 -11 -9 -21 -20 -21c-14 0 -125 62 -125 186
c0 88 57 173 158 196c-14 60 -30 119 -46 178c-108 -121 -216 -242 -216 -402zM411 1050c-99 -50 -161 -151 -161 -262c0 -59 11 -123 33 -200c82 97 149 198 149 325c0 35 0 69 -21 137z" fill="currentColor"/>
</g>
<g transform="translate(36.2528, 52.6991)">
<path transform="scale(0.0100, -0.0100)" d="M250 261c117 0 180 -102 180 -162c0 -40 -32 -74 -70 -74c-31 0 -76 25 -76 77c0 39 28 78 74 78c2 0 10 1 18 -1c-29 37 -76 60 -126 60c-106 0 -113 -73 -113 -185v-54v-54c0 -112 7 -185 113 -185c82 0 145 68 164 151c1 6 6 9 10 9c6 0 11 -4 11 -11
c0 -23 -51 -171 -185 -171c-59 0 -250 19 -250 261c0 62 18 261 250 261z" fill="currentColor"/>
</g>
<a style="color:inherit;" xlink:href="textedit:///Users/heiner/tmp/lilypond/easynotes-ukulele.ly:48:8:9">
<g color="rgb(100.0000%, 100.0000%, 100.0000%)">
<g transform="translate(45.4366, 71.4999)">
<rect x="0.2185" y="-1.5050" width="2.1852" height="3.0099" ry="0.0000" fill="currentColor"/>
</g>
</g>
<g transform="translate(45.6552, 72.9452)">
<text font-family="serif" font-weight="bold" font-size="4.3657" text-anchor="start" fill="currentColor">
<tspan>0</tspan>
</text>
</g>
</a>
<g transform="translate(29.2528, 69.6249)">
<path transform="scale(0.0100, -0.0100)" d="M208 -722c-49 0 -100 59 -100 62c0 11 12 26 24 26c16 0 34 -37 72 -37c65 0 89 99 89 195v8c0 35 9 109 18 163c-39 -13 -70 -40 -70 -70c0 -32 26 -27 26 -50c0 -9 -1 -27 -43 -27c-41 0 -84 28 -84 75c0 82 118 130 234 130c71 0 215 -11 215 -103
c0 -18 -6 -70 -69 -110c58 -11 102 -36 102 -91c0 -85 -90 -158 -179 -158c-73 0 -111 51 -111 60c0 12 16 25 28 25c13 0 17 -25 54 -25c44 0 95 41 95 93c0 46 -49 63 -100 63h-1c-6 0 -8 8 -8 16c0 11 5 24 18 24c36 0 69 39 69 77c0 35 -23 66 -80 76
c-11 -62 -31 -173 -40 -220c-20 -102 -84 -202 -159 -202zM70 -119c13 0 31 -20 57 -20c71 0 243 203 305 390c9 27 33 37 57 37c29 0 57 -15 57 -31c0 -8 -18 -361 -18 -365c0 -10 0 -30 21 -30c18 0 47 20 55 20c5 0 9 -8 9 -17c0 -8 -3 -16 -12 -19
c-30 -9 -57 -34 -87 -34c-32 0 -45 29 -53 58c-16 61 -26 125 -31 191c-27 -35 -56 -68 -87 -101c6 -10 24 -33 64 -33c7 0 11 1 12 1c5 0 8 -7 8 -15c0 -6 0 -29 -56 -29c-17 0 -51 4 -70 33c-67 -63 -123 -105 -173 -105h-3c-31 1 -50 21 -75 32c-3 1 -5 5 -5 9
c0 11 11 28 25 28zM288 540c0 -9 -1 -24 -42 -24c-49 0 -91 36 -91 84c0 30 17 120 232 120c46 0 120 -41 171 -41c69 0 108 44 119 44s23 -11 23 -19c0 -7 -63 -75 -150 -75c-17 0 -30 2 -44 6c-9 -59 -26 -151 -35 -193c-22 -96 -88 -185 -163 -185c-6 0 -12 1 -19 2
c-36 8 -67 43 -96 62c-3 2 -4 5 -4 9c0 11 12 26 23 26c17 0 43 -48 82 -48c56 0 82 77 85 150c2 45 13 150 22 208c-12 3 -23 5 -32 5c-62 0 -113 -28 -113 -70c0 -39 32 -36 32 -61z" fill="currentColor"/>
</g>
<g transform="translate(47.9896, 52.6991)">
<rect x="-0.0984" y="-1.2500" width="0.1969" height="8.2660" ry="0.0400" fill="currentColor"/>
</g>
<a style="color:inherit;" xlink:href="textedit:///Users/heiner/tmp/lilypond/easynotes-ukulele.ly:42:24:25">
<g transform="translate(53.6138, 58.9491)">
<circle stroke-linejoin="round" stroke-linecap="round" fill="currentColor" stroke="currentColor" stroke-width="0" r="1.3257"/>
</g>
<g color="rgb(100.0000%, 100.0000%, 100.0000%)">
<g transform="translate(52.7090, 59.7426)">
<text font-family="sans-serif" font-weight="bold" font-size="2.1829" text-anchor="start" fill="currentColor">
<tspan>D</tspan>
</text>
</g>
</g>
</a>
<a style="color:inherit;" xlink:href="textedit:///Users/heiner/tmp/lilypond/easynotes-ukulele.ly:49:8:9">
<g color="rgb(100.0000%, 100.0000%, 100.0000%)">
<g transform="translate(52.2881, 71.4999)">
<rect x="0.2185" y="-1.4751" width="2.1852" height="2.9503" ry="0.0000" fill="currentColor"/>
</g>
</g>
<g transform="translate(52.5066, 72.9750)">
<text font-family="serif" font-weight="bold" font-size="4.3657" text-anchor="start" fill="currentColor">
<tspan>2</tspan>
</text>
</g>
</a>
<g transform="translate(54.8411, 52.6991)">
<rect x="-0.0984" y="-2.5000" width="0.1969" height="8.2660" ry="0.0400" fill="currentColor"/>
</g>
<a style="color:inherit;" xlink:href="textedit:///Users/heiner/tmp/lilypond/easynotes-ukulele.ly:42:26:27">
<g transform="translate(60.4652, 57.6991)">
<circle stroke-linejoin="round" stroke-linecap="round" fill="currentColor" stroke="currentColor" stroke-width="0" r="1.3257"/>
</g>
<g color="rgb(100.0000%, 100.0000%, 100.0000%)">
<g transform="translate(59.7141, 58.4926)">
<text font-family="sans-serif" font-weight="bold" font-size="2.1829" text-anchor="start" fill="currentColor">
<tspan>E</tspan>
</text>
</g>
</g>
</a>
<a style="color:inherit;" xlink:href="textedit:///Users/heiner/tmp/lilypond/easynotes-ukulele.ly:50:9:10">
<g color="rgb(100.0000%, 100.0000%, 100.0000%)">
<g transform="translate(59.1395, 71.4999)">
<rect x="0.2185" y="-1.4751" width="2.1852" height="2.9503" ry="0.0000" fill="currentColor"/>
</g>
</g>
<g transform="translate(59.3580, 72.9750)">
<text font-family="serif" font-weight="bold" font-size="4.3657" text-anchor="start" fill="currentColor">
<tspan>4</tspan>
</text>
</g>
</a>
<a style="color:inherit;" xlink:href="textedit:///Users/heiner/tmp/lilypond/easynotes-ukulele.ly:50:13:14">
<g color="rgb(100.0000%, 100.0000%, 100.0000%)">
<g transform="translate(59.1395, 67.7499)">
<rect x="0.2185" y="-1.5050" width="2.1852" height="3.0099" ry="0.0000" fill="currentColor"/>
</g>
</g>
<g transform="translate(59.3580, 69.1952)">
<text font-family="serif" font-weight="bold" font-size="4.3657" text-anchor="start" fill="currentColor">
<tspan>0</tspan>
</text>
</g>
</a>
<g transform="translate(61.6925, 52.6991)">
<rect x="-0.0984" y="-3.7500" width="0.1969" height="8.2660" ry="0.0400" fill="currentColor"/>
</g>
<a style="color:inherit;" xlink:href="textedit:///Users/heiner/tmp/lilypond/easynotes-ukulele.ly:42:28:29">
<g transform="translate(67.3166, 56.4491)">
<circle stroke-linejoin="round" stroke-linecap="round" fill="currentColor" stroke="currentColor" stroke-width="0" r="1.3257"/>
</g>
<g color="rgb(100.0000%, 100.0000%, 100.0000%)">
<g transform="translate(66.5996, 57.2426)">
<text font-family="sans-serif" font-weight="bold" font-size="2.1829" text-anchor="start" fill="currentColor">
<tspan>F</tspan>
</text>
</g>
</g>
</a>
<a style="color:inherit;" xlink:href="textedit:///Users/heiner/tmp/lilypond/easynotes-ukulele.ly:51:9:10">
<g color="rgb(100.0000%, 100.0000%, 100.0000%)">
<g transform="translate(65.9909, 71.4999)">
<rect x="0.2185" y="-1.4751" width="2.1852" height="2.9503" ry="0.0000" fill="currentColor"/>
</g>
</g>
<g transform="translate(66.2094, 72.9153)">
<text font-family="serif" font-weight="bold" font-size="4.3657" text-anchor="start" fill="currentColor">
<tspan>5</tspan>
</text>
</g>
</a>
<a style="color:inherit;" xlink:href="textedit:///Users/heiner/tmp/lilypond/easynotes-ukulele.ly:51:13:14">
<g color="rgb(100.0000%, 100.0000%, 100.0000%)">
<g transform="translate(65.9909, 67.7499)">
<rect x="0.2185" y="-1.4751" width="2.1852" height="2.9503" ry="0.0000" fill="currentColor"/>
</g>
</g>
<g transform="translate(66.2094, 69.2250)">
<text font-family="serif" font-weight="bold" font-size="4.3657" text-anchor="start" fill="currentColor">
<tspan>1</tspan>
</text>
</g>
</a>
<g transform="translate(68.5439, 52.6991)">
<rect x="-0.0984" y="-5.0000" width="0.1969" height="8.2660" ry="0.0400" fill="currentColor"/>
</g>
<a style="color:inherit;" xlink:href="textedit:///Users/heiner/tmp/lilypond/easynotes-ukulele.ly:42:30:31">
<g transform="translate(74.1681, 55.1991)">
<circle stroke-linejoin="round" stroke-linecap="round" fill="currentColor" stroke="currentColor" stroke-width="0" r="1.3257"/>
</g>
<g color="rgb(100.0000%, 100.0000%, 100.0000%)">
<g transform="translate(73.2803, 55.9915)">
<text font-family="sans-serif" font-weight="bold" font-size="2.1829" text-anchor="start" fill="currentColor">
<tspan>G</tspan>
</text>
</g>
</g>
</a>
<a style="color:inherit;" xlink:href="textedit:///Users/heiner/tmp/lilypond/easynotes-ukulele.ly:52:9:10">
<g color="rgb(100.0000%, 100.0000%, 100.0000%)">
<g transform="translate(72.8424, 75.2499)">
<rect x="0.2185" y="-1.5050" width="2.1852" height="3.0099" ry="0.0000" fill="currentColor"/>
</g>
</g>
<g transform="translate(73.0609, 76.6952)">
<text font-family="serif" font-weight="bold" font-size="4.3657" text-anchor="start" fill="currentColor">
<tspan>0</tspan>
</text>
</g>
</a>
<a style="color:inherit;" xlink:href="textedit:///Users/heiner/tmp/lilypond/easynotes-ukulele.ly:52:13:14">
<g color="rgb(100.0000%, 100.0000%, 100.0000%)">
<g transform="translate(72.8424, 71.4999)">
<rect x="0.2185" y="-1.4751" width="2.1852" height="2.9503" ry="0.0000" fill="currentColor"/>
</g>
</g>
<g transform="translate(73.0609, 72.9153)">
<text font-family="serif" font-weight="bold" font-size="4.3657" text-anchor="start" fill="currentColor">
<tspan>7</tspan>
</text>
</g>
</a>
<a style="color:inherit;" xlink:href="textedit:///Users/heiner/tmp/lilypond/easynotes-ukulele.ly:52:17:18">
<g color="rgb(100.0000%, 100.0000%, 100.0000%)">
<g transform="translate(72.8424, 67.7499)">
<rect x="0.2185" y="-1.5060" width="2.1852" height="3.0121" ry="0.0000" fill="currentColor"/>
</g>
</g>
<g transform="translate(73.0609, 69.1941)">
<text font-family="serif" font-weight="bold" font-size="4.3657" text-anchor="start" fill="currentColor">
<tspan>3</tspan>
</text>
</g>
</a>
<g transform="translate(75.3954, 52.6991)">
<rect x="-0.0984" y="-6.2500" width="0.1969" height="8.2660" ry="0.0400" fill="currentColor"/>
</g>
<a style="color:inherit;" xlink:href="textedit:///Users/heiner/tmp/lilypond/easynotes-ukulele.ly:42:32:33">
<g transform="translate(81.0195, 53.9491)">
<circle stroke-linejoin="round" stroke-linecap="round" fill="currentColor" stroke="currentColor" stroke-width="0" r="1.3257"/>
</g>
<g color="rgb(100.0000%, 100.0000%, 100.0000%)">
<g transform="translate(80.1659, 54.7426)">
<text font-family="sans-serif" font-weight="bold" font-size="2.1829" text-anchor="start" fill="currentColor">
<tspan>A</tspan>
</text>
</g>
</g>
</a>
<a style="color:inherit;" xlink:href="textedit:///Users/heiner/tmp/lilypond/easynotes-ukulele.ly:53:9:10">
<g color="rgb(100.0000%, 100.0000%, 100.0000%)">
<g transform="translate(79.6938, 75.2499)">
<rect x="0.2185" y="-1.4751" width="2.1852" height="2.9503" ry="0.0000" fill="currentColor"/>
</g>
</g>
<g transform="translate(79.9123, 76.7250)">
<text font-family="serif" font-weight="bold" font-size="4.3657" text-anchor="start" fill="currentColor">
<tspan>2</tspan>
</text>
</g>
</a>
<a style="color:inherit;" xlink:href="textedit:///Users/heiner/tmp/lilypond/easynotes-ukulele.ly:53:13:14">
<g color="rgb(100.0000%, 100.0000%, 100.0000%)">
<g transform="translate(79.6938, 71.4999)">
<rect x="0.2185" y="-1.5050" width="2.1852" height="3.0099" ry="0.0000" fill="currentColor"/>
</g>
</g>
<g transform="translate(79.9123, 72.9452)">
<text font-family="serif" font-weight="bold" font-size="4.3657" text-anchor="start" fill="currentColor">
<tspan>9</tspan>
</text>
</g>
</a>
<a style="color:inherit;" xlink:href="textedit:///Users/heiner/tmp/lilypond/easynotes-ukulele.ly:53:17:18">
<g color="rgb(100.0000%, 100.0000%, 100.0000%)">
<g transform="translate(79.6938, 67.7499)">
<rect x="0.2185" y="-1.4751" width="2.1852" height="2.9503" ry="0.0000" fill="currentColor"/>
</g>
</g>
<g transform="translate(79.9123, 69.1653)">
<text font-family="serif" font-weight="bold" font-size="4.3657" text-anchor="start" fill="currentColor">
<tspan>5</tspan>
</text>
</g>
</a>
<a style="color:inherit;" xlink:href="textedit:///Users/heiner/tmp/lilypond/easynotes-ukulele.ly:53:21:22">
<g color="rgb(100.0000%, 100.0000%, 100.0000%)">
<g transform="translate(79.6938, 63.9999)">
<rect x="0.2185" y="-1.5050" width="2.1852" height="3.0099" ry="0.0000" fill="currentColor"/>
</g>
</g>
<g transform="translate(79.9123, 65.4452)">
<text font-family="serif" font-weight="bold" font-size="4.3657" text-anchor="start" fill="currentColor">
<tspan>0</tspan>
</text>
</g>
</a>
<g transform="translate(82.2468, 52.6991)">
<rect x="-0.0984" y="-7.5000" width="0.1969" height="8.2660" ry="0.0400" fill="currentColor"/>
</g>
<g transform="translate(136.2679, 52.6991)">
<rect x="-0.0984" y="-7.0160" width="0.1969" height="8.2660" ry="0.0400" fill="currentColor"/>
</g>
<a style="color:inherit;" xlink:href="textedit:///Users/heiner/tmp/lilypond/easynotes-ukulele.ly:42:34:35">
<g transform="translate(88.3778, 52.6991)">
<circle stroke-linejoin="round" stroke-linecap="round" fill="currentColor" stroke="currentColor" stroke-width="0" r="1.3257"/>
</g>
<g color="rgb(100.0000%, 100.0000%, 100.0000%)">
<g transform="translate(87.5412, 53.4926)">
<text font-family="sans-serif" font-weight="bold" font-size="2.1829" text-anchor="start" fill="currentColor">
<tspan>B</tspan>
</text>
</g>
</g>
</a>
<a style="color:inherit;" xlink:href="textedit:///Users/heiner/tmp/lilypond/easynotes-ukulele.ly:54:9:10">
<g color="rgb(100.0000%, 100.0000%, 100.0000%)">
<g transform="translate(87.0520, 75.2499)">
<rect x="0.2185" y="-1.4751" width="2.1852" height="2.9503" ry="0.0000" fill="currentColor"/>
</g>
</g>
<g transform="translate(87.2706, 76.7250)">
<text font-family="serif" font-weight="bold" font-size="4.3657" text-anchor="start" fill="currentColor">
<tspan>4</tspan>
</text>
</g>
</a>
<a style="color:inherit;" xlink:href="textedit:///Users/heiner/tmp/lilypond/easynotes-ukulele.ly:54:13:14">
<g color="rgb(100.0000%, 100.0000%, 100.0000%)">
<g transform="translate(87.0520, 71.4999)">
<rect x="-0.7546" y="-1.4751" width="4.1313" height="2.9503" ry="0.0000" fill="currentColor"/>
</g>
</g>
<g transform="translate(86.2975, 72.9750)">
<text font-family="serif" font-weight="bold" font-size="4.3657" text-anchor="start" fill="currentColor">
<tspan>11</tspan>
</text>
</g>
</a>
<a style="color:inherit;" xlink:href="textedit:///Users/heiner/tmp/lilypond/easynotes-ukulele.ly:54:17:18">
<g color="rgb(100.0000%, 100.0000%, 100.0000%)">
<g transform="translate(87.0520, 67.7499)">
<rect x="0.2185" y="-1.4751" width="2.1852" height="2.9503" ry="0.0000" fill="currentColor"/>
</g>
</g>
<g transform="translate(87.2706, 69.1653)">
<text font-family="serif" font-weight="bold" font-size="4.3657" text-anchor="start" fill="currentColor">
<tspan>7</tspan>
</text>
</g>
</a>
<a style="color:inherit;" xlink:href="textedit:///Users/heiner/tmp/lilypond/easynotes-ukulele.ly:54:21:22">
<g color="rgb(100.0000%, 100.0000%, 100.0000%)">
<g transform="translate(87.0520, 63.9999)">
<rect x="0.2185" y="-1.4751" width="2.1852" height="2.9503" ry="0.0000" fill="currentColor"/>
</g>
</g>
<g transform="translate(87.2706, 65.4750)">
<text font-family="serif" font-weight="bold" font-size="4.3657" text-anchor="start" fill="currentColor">
<tspan>2</tspan>
</text>
</g>
</a>
<g transform="translate(87.1505, 52.6991)">
<rect x="-0.0984" y="0.4840" width="0.1969" height="7.8494" ry="0.0400" fill="currentColor"/>
</g>
<a style="color:inherit;" xlink:href="textedit:///Users/heiner/tmp/lilypond/easynotes-ukulele.ly:60:8:9">
<g color="rgb(100.0000%, 100.0000%, 100.0000%)">
<g transform="translate(136.1694, 63.9999)">
<rect x="-0.8741" y="-1.4751" width="4.3703" height="2.9503" ry="0.0000" fill="currentColor"/>
</g>
</g>
<g transform="translate(135.2954, 65.4750)">
<text font-family="serif" font-weight="bold" font-size="4.3657" text-anchor="start" fill="currentColor">
<tspan>12</tspan>
</text>
</g>
</a>
<a style="color:inherit;" xlink:href="textedit:///Users/heiner/tmp/lilypond/easynotes-ukulele.ly:42:36:37">
<g transform="translate(96.8286, 51.4491)">
<circle stroke-linejoin="round" stroke-linecap="round" fill="currentColor" stroke="currentColor" stroke-width="0" r="1.3257"/>
</g>
<g color="rgb(100.0000%, 100.0000%, 100.0000%)">
<g transform="translate(96.0433, 52.2426)">
<text font-family="sans-serif" font-weight="bold" font-size="2.1829" text-anchor="start" fill="currentColor">
<tspan>C</tspan>
</text>
</g>
</g>
</a>
<a style="color:inherit;" xlink:href="textedit:///Users/heiner/tmp/lilypond/easynotes-ukulele.ly:55:9:10">
<g color="rgb(100.0000%, 100.0000%, 100.0000%)">
<g transform="translate(95.5029, 75.2499)">
<rect x="0.2185" y="-1.4751" width="2.1852" height="2.9503" ry="0.0000" fill="currentColor"/>
</g>
</g>
<g transform="translate(95.7214, 76.6653)">
<text font-family="serif" font-weight="bold" font-size="4.3657" text-anchor="start" fill="currentColor">
<tspan>5</tspan>
</text>
</g>
</a>
<a style="color:inherit;" xlink:href="textedit:///Users/heiner/tmp/lilypond/easynotes-ukulele.ly:55:13:14">
<g color="rgb(100.0000%, 100.0000%, 100.0000%)">
<g transform="translate(95.5029, 71.4999)">
<rect x="-0.8741" y="-1.4751" width="4.3703" height="2.9503" ry="0.0000" fill="currentColor"/>
</g>
</g>
<g transform="translate(94.6288, 72.9750)">
<text font-family="serif" font-weight="bold" font-size="4.3657" text-anchor="start" fill="currentColor">
<tspan>12</tspan>
</text>
</g>
</a>
<a style="color:inherit;" xlink:href="textedit:///Users/heiner/tmp/lilypond/easynotes-ukulele.ly:55:17:18">
<g color="rgb(100.0000%, 100.0000%, 100.0000%)">
<g transform="translate(95.5029, 67.7499)">
<rect x="0.2185" y="-1.4997" width="2.1852" height="2.9993" ry="0.0000" fill="currentColor"/>
</g>
</g>
<g transform="translate(95.7214, 69.1898)">
<text font-family="serif" font-weight="bold" font-size="4.3657" text-anchor="start" fill="currentColor">
<tspan>8</tspan>
</text>
</g>
</a>
<a style="color:inherit;" xlink:href="textedit:///Users/heiner/tmp/lilypond/easynotes-ukulele.ly:55:21:22">
<g color="rgb(100.0000%, 100.0000%, 100.0000%)">
<g transform="translate(95.5029, 63.9999)">
<rect x="0.2185" y="-1.5060" width="2.1852" height="3.0121" ry="0.0000" fill="currentColor"/>
</g>
</g>
<g transform="translate(95.7214, 65.4441)">
<text font-family="serif" font-weight="bold" font-size="4.3657" text-anchor="start" fill="currentColor">
<tspan>3</tspan>
</text>
</g>
</a>
<g transform="translate(95.6013, 52.6991)">
<rect x="-0.0984" y="-0.7660" width="0.1969" height="8.2660" ry="0.0400" fill="currentColor"/>
</g>
<a style="color:inherit;" xlink:href="textedit:///Users/heiner/tmp/lilypond/easynotes-ukulele.ly:42:46:47">
<g transform="translate(137.4951, 45.1991)">
<circle stroke-linejoin="round" stroke-linecap="round" fill="currentColor" stroke="currentColor" stroke-width="0" r="1.3257"/>
</g>
<g color="rgb(100.0000%, 100.0000%, 100.0000%)">
<g transform="translate(136.6416, 45.9926)">
<text font-family="sans-serif" font-weight="bold" font-size="2.1829" text-anchor="start" fill="currentColor">
<tspan>A</tspan>
</text>
</g>
</g>
</a>
<a style="color:inherit;" xlink:href="textedit:///Users/heiner/tmp/lilypond/easynotes-ukulele.ly:42:38:39">
<g transform="translate(104.3064, 50.1991)">
<circle stroke-linejoin="round" stroke-linecap="round" fill="currentColor" stroke="currentColor" stroke-width="0" r="1.3257"/>
</g>
<g color="rgb(100.0000%, 100.0000%, 100.0000%)">
<g transform="translate(103.4016, 50.9926)">
<text font-family="sans-serif" font-weight="bold" font-size="2.1829" text-anchor="start" fill="currentColor">
<tspan>D</tspan>
</text>
</g>
</g>
</a>
<a style="color:inherit;" xlink:href="textedit:///Users/heiner/tmp/lilypond/easynotes-ukulele.ly:56:9:10">
<g color="rgb(100.0000%, 100.0000%, 100.0000%)">
<g transform="translate(102.9806, 75.2499)">
<rect x="0.2185" y="-1.4751" width="2.1852" height="2.9503" ry="0.0000" fill="currentColor"/>
</g>
</g>
<g transform="translate(103.1992, 76.6653)">
<text font-family="serif" font-weight="bold" font-size="4.3657" text-anchor="start" fill="currentColor">
<tspan>7</tspan>
</text>
</g>
</a>
<a style="color:inherit;" xlink:href="textedit:///Users/heiner/tmp/lilypond/easynotes-ukulele.ly:56:13:14">
<g color="rgb(100.0000%, 100.0000%, 100.0000%)">
<g transform="translate(102.9806, 67.7499)">
<rect x="-0.8741" y="-1.5050" width="4.3703" height="3.0099" ry="0.0000" fill="currentColor"/>
</g>
</g>
<g transform="translate(102.1066, 69.1952)">
<text font-family="serif" font-weight="bold" font-size="4.3657" text-anchor="start" fill="currentColor">
<tspan>10</tspan>
</text>
</g>
</a>
<a style="color:inherit;" xlink:href="textedit:///Users/heiner/tmp/lilypond/easynotes-ukulele.ly:56:17:18">
<g color="rgb(100.0000%, 100.0000%, 100.0000%)">
<g transform="translate(102.9806, 63.9999)">
<rect x="0.2185" y="-1.4751" width="2.1852" height="2.9503" ry="0.0000" fill="currentColor"/>
</g>
</g>
<g transform="translate(103.1992, 65.4153)">
<text font-family="serif" font-weight="bold" font-size="4.3657" text-anchor="start" fill="currentColor">
<tspan>5</tspan>
</text>
</g>
</a>
<g transform="translate(103.0791, 52.6991)">
<rect x="-0.0984" y="-2.0160" width="0.1969" height="8.2660" ry="0.0400" fill="currentColor"/>
</g>
<a style="color:inherit;" xlink:href="textedit:///Users/heiner/tmp/lilypond/easynotes-ukulele.ly:42:40:41">
<g transform="translate(112.8767, 48.9491)">
<circle stroke-linejoin="round" stroke-linecap="round" fill="currentColor" stroke="currentColor" stroke-width="0" r="1.3257"/>
</g>
<g color="rgb(100.0000%, 100.0000%, 100.0000%)">
<g transform="translate(112.1255, 49.7426)">
<text font-family="sans-serif" font-weight="bold" font-size="2.1829" text-anchor="start" fill="currentColor">
<tspan>E</tspan>
</text>
</g>
</g>
</a>
<a style="color:inherit;" xlink:href="textedit:///Users/heiner/tmp/lilypond/easynotes-ukulele.ly:57:9:10">
<g color="rgb(100.0000%, 100.0000%, 100.0000%)">
<g transform="translate(111.5510, 75.2499)">
<rect x="0.2185" y="-1.5050" width="2.1852" height="3.0099" ry="0.0000" fill="currentColor"/>
</g>
</g>
<g transform="translate(111.7695, 76.6952)">
<text font-family="serif" font-weight="bold" font-size="4.3657" text-anchor="start" fill="currentColor">
<tspan>9</tspan>
</text>
</g>
</a>
<a style="color:inherit;" xlink:href="textedit:///Users/heiner/tmp/lilypond/easynotes-ukulele.ly:57:13:14">
<g color="rgb(100.0000%, 100.0000%, 100.0000%)">
<g transform="translate(111.5510, 67.7499)">
<rect x="-0.8741" y="-1.4751" width="4.3703" height="2.9503" ry="0.0000" fill="currentColor"/>
</g>
</g>
<g transform="translate(110.6769, 69.2250)">
<text font-family="serif" font-weight="bold" font-size="4.3657" text-anchor="start" fill="currentColor">
<tspan>12</tspan>
</text>
</g>
</a>
<a style="color:inherit;" xlink:href="textedit:///Users/heiner/tmp/lilypond/easynotes-ukulele.ly:57:17:18">
<g color="rgb(100.0000%, 100.0000%, 100.0000%)">
<g transform="translate(111.5510, 63.9999)">
<rect x="0.2185" y="-1.4751" width="2.1852" height="2.9503" ry="0.0000" fill="currentColor"/>
</g>
</g>
<g transform="translate(111.7695, 65.4153)">
<text font-family="serif" font-weight="bold" font-size="4.3657" text-anchor="start" fill="currentColor">
<tspan>7</tspan>
</text>
</g>
</a>
<g transform="translate(111.6494, 52.6991)">
<rect x="-0.0984" y="-3.2660" width="0.1969" height="8.2660" ry="0.0400" fill="currentColor"/>
</g>
<a style="color:inherit;" xlink:href="textedit:///Users/heiner/tmp/lilypond/easynotes-ukulele.ly:42:42:43">
<g transform="translate(120.3545, 47.6991)">
<circle stroke-linejoin="round" stroke-linecap="round" fill="currentColor" stroke="currentColor" stroke-width="0" r="1.3257"/>
</g>
<g color="rgb(100.0000%, 100.0000%, 100.0000%)">
<g transform="translate(119.6374, 48.4926)">
<text font-family="sans-serif" font-weight="bold" font-size="2.1829" text-anchor="start" fill="currentColor">
<tspan>F</tspan>
</text>
</g>
</g>
</a>
<a style="color:inherit;" xlink:href="textedit:///Users/heiner/tmp/lilypond/easynotes-ukulele.ly:58:9:10">
<g color="rgb(100.0000%, 100.0000%, 100.0000%)">
<g transform="translate(119.0287, 75.2499)">
<rect x="-0.8741" y="-1.5050" width="4.3703" height="3.0099" ry="0.0000" fill="currentColor"/>
</g>
</g>
<g transform="translate(118.1547, 76.6952)">
<text font-family="serif" font-weight="bold" font-size="4.3657" text-anchor="start" fill="currentColor">
<tspan>10</tspan>
</text>
</g>
</a>
<a style="color:inherit;" xlink:href="textedit:///Users/heiner/tmp/lilypond/easynotes-ukulele.ly:58:13:14">
<g color="rgb(100.0000%, 100.0000%, 100.0000%)">
<g transform="translate(119.0287, 63.9999)">
<rect x="0.2185" y="-1.4997" width="2.1852" height="2.9993" ry="0.0000" fill="currentColor"/>
</g>
</g>
<g transform="translate(119.2473, 65.4398)">
<text font-family="serif" font-weight="bold" font-size="4.3657" text-anchor="start" fill="currentColor">
<tspan>8</tspan>
</text>
</g>
</a>
<g transform="translate(119.1272, 52.6991)">
<rect x="-0.0984" y="-4.5160" width="0.1969" height="8.2660" ry="0.0400" fill="currentColor"/>
</g>
<a style="color:inherit;" xlink:href="textedit:///Users/heiner/tmp/lilypond/easynotes-ukulele.ly:42:44:45">
<g transform="translate(128.9248, 46.4491)">
<circle stroke-linejoin="round" stroke-linecap="round" fill="currentColor" stroke="currentColor" stroke-width="0" r="1.3257"/>
</g>
<g color="rgb(100.0000%, 100.0000%, 100.0000%)">
<g transform="translate(128.0371, 47.2415)">
<text font-family="sans-serif" font-weight="bold" font-size="2.1829" text-anchor="start" fill="currentColor">
<tspan>G</tspan>
</text>
</g>
</g>
</a>
<a style="color:inherit;" xlink:href="textedit:///Users/heiner/tmp/lilypond/easynotes-ukulele.ly:59:9:10">
<g color="rgb(100.0000%, 100.0000%, 100.0000%)">
<g transform="translate(127.5991, 75.2499)">
<rect x="-0.8741" y="-1.4751" width="4.3703" height="2.9503" ry="0.0000" fill="currentColor"/>
</g>
</g>
<g transform="translate(126.7250, 76.7250)">
<text font-family="serif" font-weight="bold" font-size="4.3657" text-anchor="start" fill="currentColor">
<tspan>12</tspan>
</text>
</g>
</a>
<a style="color:inherit;" xlink:href="textedit:///Users/heiner/tmp/lilypond/easynotes-ukulele.ly:59:13:14">
<g color="rgb(100.0000%, 100.0000%, 100.0000%)">
<g transform="translate(127.5991, 63.9999)">
<rect x="-0.8741" y="-1.5050" width="4.3703" height="3.0099" ry="0.0000" fill="currentColor"/>
</g>
</g>
<g transform="translate(126.7250, 65.4452)">
<text font-family="serif" font-weight="bold" font-size="4.3657" text-anchor="start" fill="currentColor">
<tspan>10</tspan>
</text>
</g>
</a>
<g transform="translate(127.6975, 52.6991)">
<rect x="-0.0984" y="-5.7660" width="0.1969" height="8.2660" ry="0.0400" fill="currentColor"/>
</g>
</svg>
