<svg xmlns="http://www.w3.org/2000/svg" xmlns:xlink="http://www.w3.org/1999/xlink" version="1.2" width="297.00mm" height="210.00mm" viewBox="0.0000 -0.0000 105.6309 74.6885">
<style type="text/css">
<![CDATA[
tspan { white-space: pre; }
]]>
</style>
<g transform="translate(43.9382, 14.2654)">
<text font-family="serif" font-size="3.9202" text-anchor="start" fill="currentColor">
<tspan>Easy Notes</tspan>
</text>
</g>
<g transform="translate(8.3580, 16.1492)">
<rect x="83.2171" y="-0.0877" width="1.6130" height="0.1754" ry="0.0877" fill="currentColor"/>
</g>
<g transform="translate(8.3580, 17.1492)">
<rect x="83.2171" y="-0.0877" width="1.6130" height="0.1754" ry="0.0877" fill="currentColor"/>
</g>
<g transform="translate(8.3580, 17.1492)">
<rect x="80.4437" y="-0.0877" width="1.6130" height="0.1754" ry="0.0877" fill="currentColor"/>
</g>
<g transform="translate(8.3580, 17.1492)">
<rect x="77.6703" y="-0.0877" width="1.6130" height="0.1754" ry="0.0877" fill="currentColor"/>
</g>
<g transform="translate(8.3580, 23.1492)">
<rect x="44.3741" y="-0.0877" width="1.6130" height="0.1754" ry="0.0877" fill="currentColor"/>
</g>
<g transform="translate(8.3580, 23.1492)">
<rect x="41.6007" y="-0.0877" width="1.6130" height="0.1754" ry="0.0877" fill="currentColor"/>
</g>
<g transform="translate(8.3580, 23.1492)">
<rect x="38.8273" y="-0.0877" width="1.6130" height="0.1754" ry="0.0877" fill="currentColor"/>
</g>
<g transform="translate(8.3580, 24.1492)">
<rect x="38.8273" y="-0.0877" width="1.6130" height="0.1754" ry="0.0877" fill="currentColor"/>
</g>
<g transform="translate(8.3580, 22.1492)">
<line stroke-linejoin="round" stroke-linecap="round" stroke-width="0.0754" stroke="currentColor" x1="0.0377" y1="0" x2="86.2217" y2="0"/>
</g>
<g transform="translate(8.3580, 21.1492)">
<line stroke-linejoin="round" stroke-linecap="round" stroke-width="0.0754" stroke="currentColor" x1="0.0377" y1="0" x2="86.2217" y2="0"/>
</g>
<g transform="translate(8.3580, 20.1492)">
<line stroke-linejoin="round" stroke-linecap="round" stroke-width="0.0754" stroke="currentColor" x1="0.0377" y1="0" x2="86.2217" y2="0"/>
</g>
<g transform="translate(8.3580, 19.1492)">
<line stroke-linejoin="round" stroke-linecap="round" stroke-width="0.0754" stroke="currentColor" x1="0.0377" y1="0" x2="86.2217" y2="0"/>
</g>
<g transform="translate(8.3580, 18.1492)">
<line stroke-linejoin="round" stroke-linecap="round" stroke-width="0.0754" stroke="currentColor" x1="0.0377" y1="0" x2="86.2217" y2="0"/>
</g>
<g transform="translate(8.3580, 31.1492)">
<line stroke-linejoin="round" stroke-linecap="round" stroke-width="0.0754" stroke="currentColor" x1="0.0377" y1="0" x2="86.2217" y2="0"/>
</g>
<g transform="translate(8.3580, 30.1492)">
<line stroke-linejoin="round" stroke-linecap="round" stroke-width="0.0754" stroke="currentColor" x1="0.0377" y1="0" x2="86.2217" y2="0"/>
</g>
<g transform="translate(8.3580, 29.1492)">
<line stroke-linejoin="round" stroke-linecap="round" stroke-width="0.0754" stroke="currentColor" x1="0.0377" y1="0" x2="86.2217" y2="0"/>
</g>
<g transform="translate(8.3580, 28.1492)">
<line stroke-linejoin="round" stroke-linecap="round" stroke-width="0.0754" stroke="currentColor" x1="0.0377" y1="0" x2="86.2217" y2="0"/>
</g>
<g transform="translate(8.3580, 27.1492)">
<line stroke-linejoin="round" stroke-linecap="round" stroke-width="0.0754" stroke="currentColor" x1="0.0377" y1="0" x2="86.2217" y2="0"/>
</g>
<g transform="translate(8.3580, 25.1492)">
<rect x="49.9209" y="-0.0877" width="1.6130" height="0.1754" ry="0.0877" fill="currentColor"/>
</g>
<g transform="translate(8.3580, 26.1492)">
<rect x="49.9209" y="-0.0877" width="1.6130" height="0.1754" ry="0.0877" fill="currentColor"/>
</g>
<g transform="translate(8.3580, 26.1492)">
<rect x="47.1475" y="-0.0877" width="1.6130" height="0.1754" ry="0.0877" fill="currentColor"/>
</g>
<g transform="translate(8.3580, 26.1492)">
<rect x="44.3741" y="-0.0877" width="1.6130" height="0.1754" ry="0.0877" fill="currentColor"/>
</g>
<g transform="translate(8.3580, 32.1492)">
<rect x="11.0780" y="-0.0877" width="1.6130" height="0.1754" ry="0.0877" fill="currentColor"/>
</g>
<g transform="translate(8.3580, 32.1492)">
<rect x="8.3046" y="-0.0877" width="1.6130" height="0.1754" ry="0.0877" fill="currentColor"/>
</g>
<g transform="translate(8.3580, 32.1492)">
<rect x="5.5312" y="-0.0877" width="1.6130" height="0.1754" ry="0.0877" fill="currentColor"/>
</g>
<g transform="translate(8.3580, 33.1492)">
<rect x="5.5312" y="-0.0877" width="1.6130" height="0.1754" ry="0.0877" fill="currentColor"/>
</g>
<g transform="translate(8.0374, 24.6492)">
<path transform="scale(0.0040, -0.0040)" d="M-81 -363c0 252 -132 360 -132 363c0 18 132 96 132 363c0 258 -108 489 -108 777c0 186 45 366 177 498c15 15 39 -9 24 -24c-99 -99 -129 -222 -129 -357c0 -255 102 -480 102 -762c0 -186 -48 -363 -174 -495c126 -132 174 -309 174 -495c0 -282 -102 -507 -102 -762
c0 -135 30 -258 129 -357c15 -15 -9 -39 -24 -24c-132 132 -177 312 -177 498c0 288 108 519 108 777z" fill="currentColor"/>
</g>
<g transform="translate(8.3374, 24.6492)">
<rect x="0.0000" y="-6.5377" width="0.1206" height="13.0754" ry="0.0377" fill="currentColor"/>
</g>
<g transform="translate(9.1580, 21.1492)">
<path transform="scale(0.0040, -0.0040)" d="M264 -594c47 0 165 26 165 246c0 32 -2 64 -5 96c-5 -1 -44 -8 -89 -8c-193 0 -333 178 -333 372c0 178 133 306 251 440c-27 93 -49 170 -49 345c0 116 55 226 150 295c5 4 11 4 16 0c67 -81 132 -246 132 -359c0 -144 -87 -256 -183 -365c20 -69 39 -138 55 -208
c2 0 7 1 15 1c154 0 254 -127 254 -259c0 -112 -73 -212 -180 -245c3 -36 5 -72 5 -108c0 -19 0 -37 -1 -56c-7 -120 -89 -226 -206 -226c-108 0 -195 87 -195 195c0 58 53 104 112 104c54 0 95 -48 95 -104c0 -52 -43 -95 -95 -95c-12 0 -24 4 -35 9c26 -41 70 -70 121 -70
zM459 -205c71 24 117 92 117 166c0 92 -69 184 -179 193c1 -5 45 -212 62 -359zM71 31c0 -146 142 -251 267 -251c1 0 46 0 82 6c-7 63 -28 201 -64 367c-79 -9 -125 -62 -125 -121c0 -44 26 -92 82 -124c4 -4 7 -9 7 -14c0 -11 -9 -21 -20 -21c-14 0 -125 62 -125 186
c0 88 57 173 158 196c-14 60 -30 119 -46 178c-108 -121 -216 -242 -216 -402zM411 1050c-99 -50 -161 -151 -161 -262c0 -59 11 -123 33 -200c82 97 149 198 149 325c0 35 0 69 -21 137z" fill="currentColor"/>
</g>
<a style="color:inherit;" xlink:href="textedit:///Users/heiner/tmp/lilypond/laboratory/easynotes-alt.ly:40:8:9">
<g transform="translate(14.6957, 33.1492)">
<circle stroke-linejoin="round" stroke-linecap="round" fill="currentColor" stroke="currentColor" stroke-width="0" r="0.5377"/>
</g>
<g color="rgb(100.0000%, 100.0000%, 100.0000%)">
<g transform="translate(14.3756, 33.4666)">
<text font-family="sans-serif" font-weight="bold" font-size="0.8732" text-anchor="start" fill="currentColor">
<tspan>C</tspan>
</text>
</g>
</g>
</a>
<g transform="translate(9.1580, 28.1492)">
<path transform="scale(0.0040, -0.0040)" d="M556 -125c0 29 23 52 52 52s52 -23 52 -52s-23 -52 -52 -52s-52 23 -52 52zM556 125c0 29 23 52 52 52s52 -23 52 -52s-23 -52 -52 -52s-52 23 -52 52zM233 261c171 0 292 -86 292 -248c0 -263 -264 -415 -517 -521c-2 -2 -5 -3 -8 -3c-6 0 -11 5 -11 11c0 3 1 6 3 8
c203 118 415 265 415 494c0 121 -64 237 -174 237c-79 0 -138 -57 -164 -133c14 8 28 13 43 13c55 0 100 -45 100 -100c0 -58 -44 -107 -100 -107c-60 0 -112 48 -112 107c0 132 103 242 233 242z" fill="currentColor"/>
</g>
<g transform="translate(15.1844, 29.1492)">
<rect x="-0.0490" y="-0.0000" width="0.0980" height="3.8037" ry="0.0250" fill="currentColor"/>
</g>
<a style="color:inherit;" xlink:href="textedit:///Users/heiner/tmp/lilypond/laboratory/easynotes-alt.ly:40:11:12">
<g transform="translate(17.4691, 32.6492)">
<circle stroke-linejoin="round" stroke-linecap="round" fill="currentColor" stroke="currentColor" stroke-width="0" r="0.5377"/>
</g>
<g color="rgb(100.0000%, 100.0000%, 100.0000%)">
<g transform="translate(17.1063, 32.9666)">
<text font-family="sans-serif" font-weight="bold" font-size="0.8732" text-anchor="start" fill="currentColor">
<tspan>D</tspan>
</text>
</g>
</g>
</a>
<g transform="translate(17.9578, 29.1492)">
<rect x="-0.0490" y="-0.0000" width="0.0980" height="3.3037" ry="0.0250" fill="currentColor"/>
</g>
<a style="color:inherit;" xlink:href="textedit:///Users/heiner/tmp/lilypond/laboratory/easynotes-alt.ly:40:13:14">
<g transform="translate(20.2425, 32.1492)">
<circle stroke-linejoin="round" stroke-linecap="round" fill="currentColor" stroke="currentColor" stroke-width="0" r="0.5377"/>
</g>
<g color="rgb(100.0000%, 100.0000%, 100.0000%)">
<g transform="translate(19.9437, 32.4666)">
<text font-family="sans-serif" font-weight="bold" font-size="0.8732" text-anchor="start" fill="currentColor">
<tspan>E</tspan>
</text>
</g>
</g>
</a>
<g transform="translate(20.7312, 29.1492)">
<rect x="-0.0490" y="-0.5000" width="0.0980" height="3.3037" ry="0.0250" fill="currentColor"/>
</g>
<a style="color:inherit;" xlink:href="textedit:///Users/heiner/tmp/lilypond/laboratory/easynotes-alt.ly:40:15:16">
<g transform="translate(23.0159, 31.6492)">
<circle stroke-linejoin="round" stroke-linecap="round" fill="currentColor" stroke="currentColor" stroke-width="0" r="0.5377"/>
</g>
<g color="rgb(100.0000%, 100.0000%, 100.0000%)">
<g transform="translate(22.7278, 31.9666)">
<text font-family="sans-serif" font-weight="bold" font-size="0.8732" text-anchor="start" fill="currentColor">
<tspan>F</tspan>
</text>
</g>
</g>
</a>
<g transform="translate(23.5046, 29.1492)">
<rect x="-0.0490" y="-1.0000" width="0.0980" height="3.3037" ry="0.0250" fill="currentColor"/>
</g>
<a style="color:inherit;" xlink:href="textedit:///Users/heiner/tmp/lilypond/laboratory/easynotes-alt.ly:40:17:18">
<g transform="translate(25.7893, 31.1492)">
<circle stroke-linejoin="round" stroke-linecap="round" fill="currentColor" stroke="currentColor" stroke-width="0" r="0.5377"/>
</g>
<g color="rgb(100.0000%, 100.0000%, 100.0000%)">
<g transform="translate(25.4372, 31.4662)">
<text font-family="sans-serif" font-weight="bold" font-size="0.8732" text-anchor="start" fill="currentColor">
<tspan>G</tspan>
</text>
</g>
</g>
</a>
<g transform="translate(26.2780, 29.1492)">
<rect x="-0.0490" y="-1.5000" width="0.0980" height="3.3037" ry="0.0250" fill="currentColor"/>
</g>
<a style="color:inherit;" xlink:href="textedit:///Users/heiner/tmp/lilypond/laboratory/easynotes-alt.ly:40:19:20">
<g transform="translate(28.5627, 30.6492)">
<circle stroke-linejoin="round" stroke-linecap="round" fill="currentColor" stroke="currentColor" stroke-width="0" r="0.5377"/>
</g>
<g color="rgb(100.0000%, 100.0000%, 100.0000%)">
<g transform="translate(28.2213, 30.9666)">
<text font-family="sans-serif" font-weight="bold" font-size="0.8732" text-anchor="start" fill="currentColor">
<tspan>A</tspan>
</text>
</g>
</g>
</a>
<g transform="translate(29.0514, 29.1492)">
<rect x="-0.0490" y="-2.0000" width="0.0980" height="3.3037" ry="0.0250" fill="currentColor"/>
</g>
<a style="color:inherit;" xlink:href="textedit:///Users/heiner/tmp/lilypond/laboratory/easynotes-alt.ly:40:21:22">
<g transform="translate(31.3361, 30.1492)">
<circle stroke-linejoin="round" stroke-linecap="round" fill="currentColor" stroke="currentColor" stroke-width="0" r="0.5377"/>
</g>
<g color="rgb(100.0000%, 100.0000%, 100.0000%)">
<g transform="translate(31.0053, 30.4666)">
<text font-family="sans-serif" font-weight="bold" font-size="0.8732" text-anchor="start" fill="currentColor">
<tspan>B</tspan>
</text>
</g>
</g>
</a>
<g transform="translate(31.8248, 29.1492)">
<rect x="-0.0490" y="-2.5000" width="0.0980" height="3.3037" ry="0.0250" fill="currentColor"/>
</g>
<a style="color:inherit;" xlink:href="textedit:///Users/heiner/tmp/lilypond/laboratory/easynotes-alt.ly:40:23:24">
<g transform="translate(34.1095, 29.6492)">
<circle stroke-linejoin="round" stroke-linecap="round" fill="currentColor" stroke="currentColor" stroke-width="0" r="0.5377"/>
</g>
<g color="rgb(100.0000%, 100.0000%, 100.0000%)">
<g transform="translate(33.7894, 29.9666)">
<text font-family="sans-serif" font-weight="bold" font-size="0.8732" text-anchor="start" fill="currentColor">
<tspan>C</tspan>
</text>
</g>
</g>
</a>
<g transform="translate(34.5982, 29.1492)">
<rect x="-0.0490" y="-3.0000" width="0.0980" height="3.3037" ry="0.0250" fill="currentColor"/>
</g>
<a style="color:inherit;" xlink:href="textedit:///Users/heiner/tmp/lilypond/laboratory/easynotes-alt.ly:40:25:26">
<g transform="translate(36.8982, 29.1492)">
<circle stroke-linejoin="round" stroke-linecap="round" fill="currentColor" stroke="currentColor" stroke-width="0" r="0.5377"/>
</g>
<g color="rgb(100.0000%, 100.0000%, 100.0000%)">
<g transform="translate(36.5355, 29.4666)">
<text font-family="sans-serif" font-weight="bold" font-size="0.8732" text-anchor="start" fill="currentColor">
<tspan>D</tspan>
</text>
</g>
</g>
</a>
<g transform="translate(36.4095, 29.1492)">
<rect x="-0.0490" y="0.1963" width="0.0980" height="3.1371" ry="0.0250" fill="currentColor"/>
</g>
<a style="color:inherit;" xlink:href="textedit:///Users/heiner/tmp/lilypond/laboratory/easynotes-alt.ly:40:27:28">
<g transform="translate(39.6716, 28.6492)">
<circle stroke-linejoin="round" stroke-linecap="round" fill="currentColor" stroke="currentColor" stroke-width="0" r="0.5377"/>
</g>
<g color="rgb(100.0000%, 100.0000%, 100.0000%)">
<g transform="translate(39.3729, 28.9666)">
<text font-family="sans-serif" font-weight="bold" font-size="0.8732" text-anchor="start" fill="currentColor">
<tspan>E</tspan>
</text>
</g>
</g>
</a>
<g transform="translate(39.1829, 29.1492)">
<rect x="-0.0490" y="-0.3037" width="0.0980" height="3.3037" ry="0.0250" fill="currentColor"/>
</g>
<g transform="translate(91.8929, 20.1492)">
<rect x="-0.0490" y="-3.8037" width="0.0980" height="3.8037" ry="0.0250" fill="currentColor"/>
</g>
<a style="color:inherit;" xlink:href="textedit:///Users/heiner/tmp/lilypond/laboratory/easynotes-alt.ly:40:29:30">
<g transform="translate(42.4450, 28.1492)">
<circle stroke-linejoin="round" stroke-linecap="round" fill="currentColor" stroke="currentColor" stroke-width="0" r="0.5377"/>
</g>
<g color="rgb(100.0000%, 100.0000%, 100.0000%)">
<g transform="translate(42.1570, 28.4666)">
<text font-family="sans-serif" font-weight="bold" font-size="0.8732" text-anchor="start" fill="currentColor">
<tspan>F</tspan>
</text>
</g>
</g>
</a>
<g transform="translate(41.9563, 29.1492)">
<rect x="-0.0490" y="-0.8037" width="0.0980" height="3.3037" ry="0.0250" fill="currentColor"/>
</g>
<a style="color:inherit;" xlink:href="textedit:///Users/heiner/tmp/lilypond/laboratory/easynotes-alt.ly:40:31:32">
<g transform="translate(45.2184, 27.6492)">
<circle stroke-linejoin="round" stroke-linecap="round" fill="currentColor" stroke="currentColor" stroke-width="0" r="0.5377"/>
</g>
<g color="rgb(100.0000%, 100.0000%, 100.0000%)">
<g transform="translate(44.8663, 27.9662)">
<text font-family="sans-serif" font-weight="bold" font-size="0.8732" text-anchor="start" fill="currentColor">
<tspan>G</tspan>
</text>
</g>
</g>
</a>
<g transform="translate(44.7298, 29.1492)">
<rect x="-0.0490" y="-1.3037" width="0.0980" height="3.3037" ry="0.0250" fill="currentColor"/>
</g>
<a style="color:inherit;" xlink:href="textedit:///Users/heiner/tmp/lilypond/laboratory/easynotes-alt.ly:32:8:9">
<g transform="translate(47.9918, 24.1492)">
<circle stroke-linejoin="round" stroke-linecap="round" fill="currentColor" stroke="currentColor" stroke-width="0" r="0.5377"/>
</g>
<g color="rgb(100.0000%, 100.0000%, 100.0000%)">
<g transform="translate(47.6504, 24.4666)">
<text font-family="sans-serif" font-weight="bold" font-size="0.8732" text-anchor="start" fill="currentColor">
<tspan>A</tspan>
</text>
</g>
</g>
</a>
<a style="color:inherit;" xlink:href="textedit:///Users/heiner/tmp/lilypond/laboratory/easynotes-alt.ly:40:33:34">
<g transform="translate(47.9918, 27.1492)">
<circle stroke-linejoin="round" stroke-linecap="round" fill="currentColor" stroke="currentColor" stroke-width="0" r="0.5377"/>
</g>
<g color="rgb(100.0000%, 100.0000%, 100.0000%)">
<g transform="translate(47.6504, 27.4666)">
<text font-family="sans-serif" font-weight="bold" font-size="0.8732" text-anchor="start" fill="currentColor">
<tspan>A</tspan>
</text>
</g>
</g>
</a>
<g transform="translate(48.4805, 20.1492)">
<rect x="-0.0490" y="-0.0000" width="0.0980" height="3.8037" ry="0.0250" fill="currentColor"/>
</g>
<g transform="translate(47.5032, 29.1492)">
<rect x="-0.0490" y="-1.8037" width="0.0980" height="3.3037" ry="0.0250" fill="currentColor"/>
</g>
<a style="color:inherit;" xlink:href="textedit:///Users/heiner/tmp/lilypond/laboratory/easynotes-alt.ly:33:37:38">
<g transform="translate(92.3816, 16.1492)">
<circle stroke-linejoin="round" stroke-linecap="round" fill="currentColor" stroke="currentColor" stroke-width="0" r="0.5377"/>
</g>
<g color="rgb(100.0000%, 100.0000%, 100.0000%)">
<g transform="translate(92.0615, 16.4666)">
<text font-family="sans-serif" font-weight="bold" font-size="0.8732" text-anchor="start" fill="currentColor">
<tspan>C</tspan>
</text>
</g>
</g>
</a>
<a style="color:inherit;" xlink:href="textedit:///Users/heiner/tmp/lilypond/laboratory/easynotes-alt.ly:32:10:11">
<g transform="translate(50.7653, 23.6492)">
<circle stroke-linejoin="round" stroke-linecap="round" fill="currentColor" stroke="currentColor" stroke-width="0" r="0.5377"/>
</g>
<g color="rgb(100.0000%, 100.0000%, 100.0000%)">
<g transform="translate(50.4345, 23.9666)">
<text font-family="sans-serif" font-weight="bold" font-size="0.8732" text-anchor="start" fill="currentColor">
<tspan>B</tspan>
</text>
</g>
</g>
</a>
<a style="color:inherit;" xlink:href="textedit:///Users/heiner/tmp/lilypond/laboratory/easynotes-alt.ly:40:35:36">
<g transform="translate(50.7653, 26.6492)">
<circle stroke-linejoin="round" stroke-linecap="round" fill="currentColor" stroke="currentColor" stroke-width="0" r="0.5377"/>
</g>
<g color="rgb(100.0000%, 100.0000%, 100.0000%)">
<g transform="translate(50.4345, 26.9666)">
<text font-family="sans-serif" font-weight="bold" font-size="0.8732" text-anchor="start" fill="currentColor">
<tspan>B</tspan>
</text>
</g>
</g>
</a>
<g transform="translate(51.2539, 20.1492)">
<rect x="-0.0490" y="-0.0000" width="0.0980" height="3.3037" ry="0.0250" fill="currentColor"/>
</g>
<g transform="translate(50.2766, 29.1492)">
<rect x="-0.0490" y="-2.3037" width="0.0980" height="3.3037" ry="0.0250" fill="currentColor"/>
</g>
<a style="color:inherit;" xlink:href="textedit:///Users/heiner/tmp/lilypond/laboratory/easynotes-alt.ly:33:8:9">
<g transform="translate(53.5387, 23.1492)">
<circle stroke-linejoin="round" stroke-linecap="round" fill="currentColor" stroke="currentColor" stroke-width="0" r="0.5377"/>
</g>
<g color="rgb(100.0000%, 100.0000%, 100.0000%)">
<g transform="translate(53.2186, 23.4666)">
<text font-family="sans-serif" font-weight="bold" font-size="0.8732" text-anchor="start" fill="currentColor">
<tspan>C</tspan>
</text>
</g>
</g>
</a>
<a style="color:inherit;" xlink:href="textedit:///Users/heiner/tmp/lilypond/laboratory/easynotes-alt.ly:40:37:38">
<g transform="translate(53.5387, 26.1492)">
<circle stroke-linejoin="round" stroke-linecap="round" fill="currentColor" stroke="currentColor" stroke-width="0" r="0.5377"/>
</g>
<g color="rgb(100.0000%, 100.0000%, 100.0000%)">
<g transform="translate(53.2186, 26.4666)">
<text font-family="sans-serif" font-weight="bold" font-size="0.8732" text-anchor="start" fill="currentColor">
<tspan>C</tspan>
</text>
</g>
</g>
</a>
<g transform="translate(54.0273, 20.1492)">
<rect x="-0.0490" y="-0.5000" width="0.0980" height="3.3037" ry="0.0250" fill="currentColor"/>
</g>
<g transform="translate(53.0500, 29.1492)">
<rect x="-0.0490" y="-2.8037" width="0.0980" height="3.3037" ry="0.0250" fill="currentColor"/>
</g>
<a style="color:inherit;" xlink:href="textedit:///Users/heiner/tmp/lilypond/laboratory/easynotes-alt.ly:33:11:12">
<g transform="translate(56.3121, 22.6492)">
<circle stroke-linejoin="round" stroke-linecap="round" fill="currentColor" stroke="currentColor" stroke-width="0" r="0.5377"/>
</g>
<g color="rgb(100.0000%, 100.0000%, 100.0000%)">
<g transform="translate(55.9493, 22.9666)">
<text font-family="sans-serif" font-weight="bold" font-size="0.8732" text-anchor="start" fill="currentColor">
<tspan>D</tspan>
</text>
</g>
</g>
</a>
<a style="color:inherit;" xlink:href="textedit:///Users/heiner/tmp/lilypond/laboratory/easynotes-alt.ly:41:8:9">
<g transform="translate(56.3121, 25.6492)">
<circle stroke-linejoin="round" stroke-linecap="round" fill="currentColor" stroke="currentColor" stroke-width="0" r="0.5377"/>
</g>
<g color="rgb(100.0000%, 100.0000%, 100.0000%)">
<g transform="translate(55.9493, 25.9666)">
<text font-family="sans-serif" font-weight="bold" font-size="0.8732" text-anchor="start" fill="currentColor">
<tspan>D</tspan>
</text>
</g>
</g>
</a>
<g transform="translate(56.8008, 20.1492)">
<rect x="-0.0490" y="-1.0000" width="0.0980" height="3.3037" ry="0.0250" fill="currentColor"/>
</g>
<g transform="translate(55.8234, 29.1492)">
<rect x="-0.0490" y="-3.3037" width="0.0980" height="3.3037" ry="0.0250" fill="currentColor"/>
</g>
<a style="color:inherit;" xlink:href="textedit:///Users/heiner/tmp/lilypond/laboratory/easynotes-alt.ly:33:13:14">
<g transform="translate(59.0855, 22.1492)">
<circle stroke-linejoin="round" stroke-linecap="round" fill="currentColor" stroke="currentColor" stroke-width="0" r="0.5377"/>
</g>
<g color="rgb(100.0000%, 100.0000%, 100.0000%)">
<g transform="translate(58.7867, 22.4666)">
<text font-family="sans-serif" font-weight="bold" font-size="0.8732" text-anchor="start" fill="currentColor">
<tspan>E</tspan>
</text>
</g>
</g>
</a>
<a style="color:inherit;" xlink:href="textedit:///Users/heiner/tmp/lilypond/laboratory/easynotes-alt.ly:41:10:11">
<g transform="translate(59.0855, 25.1492)">
<circle stroke-linejoin="round" stroke-linecap="round" fill="currentColor" stroke="currentColor" stroke-width="0" r="0.5377"/>
</g>
<g color="rgb(100.0000%, 100.0000%, 100.0000%)">
<g transform="translate(58.7867, 25.4666)">
<text font-family="sans-serif" font-weight="bold" font-size="0.8732" text-anchor="start" fill="currentColor">
<tspan>E</tspan>
</text>
</g>
</g>
</a>
<g transform="translate(59.5742, 20.1492)">
<rect x="-0.0490" y="-1.5000" width="0.0980" height="3.3037" ry="0.0250" fill="currentColor"/>
</g>
<g transform="translate(58.5968, 29.1492)">
<rect x="-0.0490" y="-3.8037" width="0.0980" height="3.8037" ry="0.0250" fill="currentColor"/>
</g>
<a style="color:inherit;" xlink:href="textedit:///Users/heiner/tmp/lilypond/laboratory/easynotes-alt.ly:33:15:16">
<g transform="translate(61.8589, 21.6492)">
<circle stroke-linejoin="round" stroke-linecap="round" fill="currentColor" stroke="currentColor" stroke-width="0" r="0.5377"/>
</g>
<g color="rgb(100.0000%, 100.0000%, 100.0000%)">
<g transform="translate(61.5708, 21.9666)">
<text font-family="sans-serif" font-weight="bold" font-size="0.8732" text-anchor="start" fill="currentColor">
<tspan>F</tspan>
</text>
</g>
</g>
</a>
<g transform="translate(62.3476, 20.1492)">
<rect x="-0.0490" y="-2.0000" width="0.0980" height="3.3037" ry="0.0250" fill="currentColor"/>
</g>
<g transform="translate(89.1195, 20.1492)">
<rect x="-0.0490" y="-3.3037" width="0.0980" height="3.3037" ry="0.0250" fill="currentColor"/>
</g>
<a style="color:inherit;" xlink:href="textedit:///Users/heiner/tmp/lilypond/laboratory/easynotes-alt.ly:33:17:18">
<g transform="translate(64.6323, 21.1492)">
<circle stroke-linejoin="round" stroke-linecap="round" fill="currentColor" stroke="currentColor" stroke-width="0" r="0.5377"/>
</g>
<g color="rgb(100.0000%, 100.0000%, 100.0000%)">
<g transform="translate(64.2802, 21.4662)">
<text font-family="sans-serif" font-weight="bold" font-size="0.8732" text-anchor="start" fill="currentColor">
<tspan>G</tspan>
</text>
</g>
</g>
</a>
<g transform="translate(65.1210, 20.1492)">
<rect x="-0.0490" y="-2.5000" width="0.0980" height="3.3037" ry="0.0250" fill="currentColor"/>
</g>
<a style="color:inherit;" xlink:href="textedit:///Users/heiner/tmp/lilypond/laboratory/easynotes-alt.ly:33:19:20">
<g transform="translate(67.4057, 20.6492)">
<circle stroke-linejoin="round" stroke-linecap="round" fill="currentColor" stroke="currentColor" stroke-width="0" r="0.5377"/>
</g>
<g color="rgb(100.0000%, 100.0000%, 100.0000%)">
<g transform="translate(67.0642, 20.9666)">
<text font-family="sans-serif" font-weight="bold" font-size="0.8732" text-anchor="start" fill="currentColor">
<tspan>A</tspan>
</text>
</g>
</g>
</a>
<g transform="translate(67.8944, 20.1492)">
<rect x="-0.0490" y="-3.0000" width="0.0980" height="3.3037" ry="0.0250" fill="currentColor"/>
</g>
<a style="color:inherit;" xlink:href="textedit:///Users/heiner/tmp/lilypond/laboratory/easynotes-alt.ly:33:21:22">
<g transform="translate(70.1944, 20.1492)">
<circle stroke-linejoin="round" stroke-linecap="round" fill="currentColor" stroke="currentColor" stroke-width="0" r="0.5377"/>
</g>
<g color="rgb(100.0000%, 100.0000%, 100.0000%)">
<g transform="translate(69.8637, 20.4666)">
<text font-family="sans-serif" font-weight="bold" font-size="0.8732" text-anchor="start" fill="currentColor">
<tspan>B</tspan>
</text>
</g>
</g>
</a>
<g transform="translate(69.7057, 20.1492)">
<rect x="-0.0490" y="0.1963" width="0.0980" height="3.1371" ry="0.0250" fill="currentColor"/>
</g>
<a style="color:inherit;" xlink:href="textedit:///Users/heiner/tmp/lilypond/laboratory/easynotes-alt.ly:33:35:36">
<g transform="translate(89.6082, 16.6492)">
<circle stroke-linejoin="round" stroke-linecap="round" fill="currentColor" stroke="currentColor" stroke-width="0" r="0.5377"/>
</g>
<g color="rgb(100.0000%, 100.0000%, 100.0000%)">
<g transform="translate(89.2775, 16.9666)">
<text font-family="sans-serif" font-weight="bold" font-size="0.8732" text-anchor="start" fill="currentColor">
<tspan>B</tspan>
</text>
</g>
</g>
</a>
<a style="color:inherit;" xlink:href="textedit:///Users/heiner/tmp/lilypond/laboratory/easynotes-alt.ly:33:23:24">
<g transform="translate(72.9678, 19.6492)">
<circle stroke-linejoin="round" stroke-linecap="round" fill="currentColor" stroke="currentColor" stroke-width="0" r="0.5377"/>
</g>
<g color="rgb(100.0000%, 100.0000%, 100.0000%)">
<g transform="translate(72.6477, 19.9666)">
<text font-family="sans-serif" font-weight="bold" font-size="0.8732" text-anchor="start" fill="currentColor">
<tspan>C</tspan>
</text>
</g>
</g>
</a>
<g transform="translate(72.4791, 20.1492)">
<rect x="-0.0490" y="-0.3037" width="0.0980" height="3.3037" ry="0.0250" fill="currentColor"/>
</g>
<a style="color:inherit;" xlink:href="textedit:///Users/heiner/tmp/lilypond/laboratory/easynotes-alt.ly:33:25:26">
<g transform="translate(75.7412, 19.1492)">
<circle stroke-linejoin="round" stroke-linecap="round" fill="currentColor" stroke="currentColor" stroke-width="0" r="0.5377"/>
</g>
<g color="rgb(100.0000%, 100.0000%, 100.0000%)">
<g transform="translate(75.3784, 19.4666)">
<text font-family="sans-serif" font-weight="bold" font-size="0.8732" text-anchor="start" fill="currentColor">
<tspan>D</tspan>
</text>
</g>
</g>
</a>
<g transform="translate(75.2525, 20.1492)">
<rect x="-0.0490" y="-0.8037" width="0.0980" height="3.3037" ry="0.0250" fill="currentColor"/>
</g>
<a style="color:inherit;" xlink:href="textedit:///Users/heiner/tmp/lilypond/laboratory/easynotes-alt.ly:33:27:28">
<g transform="translate(78.5146, 18.6492)">
<circle stroke-linejoin="round" stroke-linecap="round" fill="currentColor" stroke="currentColor" stroke-width="0" r="0.5377"/>
</g>
<g color="rgb(100.0000%, 100.0000%, 100.0000%)">
<g transform="translate(78.2159, 18.9666)">
<text font-family="sans-serif" font-weight="bold" font-size="0.8732" text-anchor="start" fill="currentColor">
<tspan>E</tspan>
</text>
</g>
</g>
</a>
<g transform="translate(78.0259, 20.1492)">
<rect x="-0.0490" y="-1.3037" width="0.0980" height="3.3037" ry="0.0250" fill="currentColor"/>
</g>
<a style="color:inherit;" xlink:href="textedit:///Users/heiner/tmp/lilypond/laboratory/easynotes-alt.ly:33:29:30">
<g transform="translate(81.2880, 18.1492)">
<circle stroke-linejoin="round" stroke-linecap="round" fill="currentColor" stroke="currentColor" stroke-width="0" r="0.5377"/>
</g>
<g color="rgb(100.0000%, 100.0000%, 100.0000%)">
<g transform="translate(80.9999, 18.4666)">
<text font-family="sans-serif" font-weight="bold" font-size="0.8732" text-anchor="start" fill="currentColor">
<tspan>F</tspan>
</text>
</g>
</g>
</a>
<g transform="translate(80.7993, 20.1492)">
<rect x="-0.0490" y="-1.8037" width="0.0980" height="3.3037" ry="0.0250" fill="currentColor"/>
</g>
<a style="color:inherit;" xlink:href="textedit:///Users/heiner/tmp/lilypond/laboratory/easynotes-alt.ly:33:31:32">
<g transform="translate(84.0614, 17.6492)">
<circle stroke-linejoin="round" stroke-linecap="round" fill="currentColor" stroke="currentColor" stroke-width="0" r="0.5377"/>
</g>
<g color="rgb(100.0000%, 100.0000%, 100.0000%)">
<g transform="translate(83.7093, 17.9662)">
<text font-family="sans-serif" font-weight="bold" font-size="0.8732" text-anchor="start" fill="currentColor">
<tspan>G</tspan>
</text>
</g>
</g>
</a>
<g transform="translate(83.5727, 20.1492)">
<rect x="-0.0490" y="-2.3037" width="0.0980" height="3.3037" ry="0.0250" fill="currentColor"/>
</g>
<g transform="translate(86.3461, 20.1492)">
<rect x="-0.0490" y="-2.8037" width="0.0980" height="3.3037" ry="0.0250" fill="currentColor"/>
</g>
<a style="color:inherit;" xlink:href="textedit:///Users/heiner/tmp/lilypond/laboratory/easynotes-alt.ly:33:33:34">
<g transform="translate(86.8348, 17.1492)">
<circle stroke-linejoin="round" stroke-linecap="round" fill="currentColor" stroke="currentColor" stroke-width="0" r="0.5377"/>
</g>
<g color="rgb(100.0000%, 100.0000%, 100.0000%)">
<g transform="translate(86.4934, 17.4666)">
<text font-family="sans-serif" font-weight="bold" font-size="0.8732" text-anchor="start" fill="currentColor">
<tspan>A</tspan>
</text>
</g>
</g>
</a>
<g transform="translate(39.8491, 67.1984)">
<text font-family="serif" font-size="1.7463" text-anchor="start" fill="currentColor">
<tspan>Music engraving by</tspan>
</text>
</g>
<g transform="translate(54.4052, 67.1984)">
<text font-family="serif" font-style="italic" font-size="1.7463" text-anchor="start" fill="currentColor">
<tspan>LilyPond</tspan>
</text>
</g>
<g transform="translate(61.4284, 67.1984)">
<text font-family="serif" font-size="1.7463" text-anchor="start" fill="currentColor">
<tspan>2.24.0</tspan>
</text>
</g>
</svg>
